<svg xmlns="http://www.w3.org/2000/svg" version="1.1" xmlns:xlink="http://www.w3.org/1999/xlink" xmlns:svgjs="http://svgjs.dev/svgjs" viewBox="0 0 800 800"><defs><linearGradient x1="50%" y1="0%" x2="50%" y2="100%" id="ccchaos-grad"><stop stop-color="hsl(150, 33%, 75%)" stop-opacity="1" offset="0%"></stop><stop stop-color="hsl(0, 100%, 75%)" stop-opacity="1" offset="100%"></stop></linearGradient></defs><g stroke-width="2" stroke="url(#ccchaos-grad)" fill="none" stroke-linecap="round"><path d="M377.65 59.2Q385.95 63.2 394.52 67.49 403.37 72.09 412.5 77.03 421.94 82.32 431.69 87.98 441.73 94 452.08 100.36 462.73 107.05 473.65 114.03 484.84 121.25 496.28 128.67 507.94 136.23 519.79 143.86 531.8 151.51 543.95 159.11 556.18 166.58 568.47 173.87 580.77 180.9 593.04 187.62 605.24 193.99 617.32 199.95 629.25 205.49 640.97 210.57 652.45 215.2 663.66 219.37 674.54 223.11 685.08 226.43 695.25 229.39 705.01 232.03 717.64 240.7 717.02 257.34 711.67 267.69 705.14 278.05 697.73 288.4 689.78 298.76 681.65 309.12 673.72 319.47 666.36 329.83 659.9 340.19 654.65 350.54 650.84 360.9 648.64 371.26 648.17 381.61 649.44 391.97 652.39 402.33 656.89 412.68 662.73 423.04 669.64 433.39 677.3 443.75 685.37 454.11 693.46 464.46 701.21 474.82 708.26 485.18 714.28 495.53 719.01 505.89 722.21 516.25 723.74 526.6 723.53 536.96 721.6 547.32 718.03 557.67 712.98 568.03 700.73 578.23 688.29 588.27 675.7 598.04 663.01 607.4 650.27 616.23 637.53 624.43 624.83 631.92 612.22 638.62 599.73 644.48 587.42 649.48 575.31 653.6 563.44 656.87 551.83 659.33 540.52 661.03 529.52 662.06 518.85 662.53 508.52 662.54 498.54 662.25 488.91 661.78 479.62 661.28 462.22 661.01 445.76 661.98 430.67 666.25 416.25 673.07 409.35 678.11 402.58 684.13 395.92 691.1 389.31 698.99 378.59 697.71 368.08 697.1 357.82 697.05 347.81 697.4 338.05 698.02 328.54 698.75 319.29 699.43 310.27 699.91 293.02 699.38 276.39 697.05 260.58 690.82 245.14 681.94 237.58 675.91 230.06 669.03 222.57 661.32 215.09 652.89 207.59 643.81 200.04 634.2 192.44 624.18 184.75 613.89 176.97 603.46 169.09 593.04 161.08 582.75 152.95 572.75 144.68 563.14 136.28 554.05 127.74 545.56 119.06 537.77 120.01 527.79 120.69 517.81 121.05 507.82 121.09 497.84 120.8 487.86 120.2 477.88 119.31 467.9 118.17 457.92 116.85 447.94 115.39 437.96 113.87 427.97 112.35 417.99 110.91 408.01 109.61 398.03 108.51 388.05 107.66 378.07 107.11 368.09 106.87 358.11 106.96 348.13 107.37 338.15 108.09 328.16 109.08 318.18 110.29 308.2 111.68 298.22 113.17 288.24 114.7 278.26 116.19 268.28 117.59 258.3 118.82 248.32 119.82 238.34 125.54 221.7 139.94 212.07 149.28 209.37 158.5 206.89 167.6 204.54 176.56 202.25 185.37 199.94 194.02 197.54 202.51 194.97 210.83 192.17 226.9 185.47 242.49 177.66 250.04 173.05 257.45 168 264.76 162.55 271.99 156.69 279.14 150.46 286.25 143.91 293.33 137.06 300.43 129.98 307.55 122.73 314.74 115.35 322.02 107.93 329.41 100.51 336.95 93.15 344.66 85.93 352.56 78.88 360.68 72.05 373.34 62.34 377.65 59.2" stroke-dasharray="2 2" transform="rotate(0, 400, 400)" opacity="0.27"></path><path d="M377.74 71.5Q386.34 75.31 395.21 79.39 404.34 83.77 413.75 88.47 423.42 93.51 433.36 98.9 443.57 104.63 454.02 110.7 464.71 117.08 475.62 123.75 486.72 130.67 498 137.79 509.43 145.08 520.98 152.47 532.62 159.9 544.31 167.31 556.02 174.65 567.72 181.84 579.36 188.84 590.91 195.58 602.34 202.01 613.6 208.09 624.66 213.79 635.49 219.08 646.06 223.93 656.33 228.35 666.27 232.34 675.88 235.92 685.11 239.1 693.96 241.93 704.88 250.61 702.86 266.79 697.19 276.82 690.56 286.85 683.28 296.88 675.64 306.91 667.98 316.94 660.61 326.97 653.86 337.01 648 347.04 643.3 357.07 639.95 367.1 638.08 377.13 637.79 387.16 639.09 397.19 641.91 407.22 646.15 417.25 651.61 427.29 658.06 437.32 665.24 447.35 672.84 457.38 680.52 467.41 687.97 477.44 694.87 487.47 700.92 497.5 705.87 507.54 709.5 517.57 711.66 527.6 712.26 537.63 711.28 547.66 708.75 557.69 704.78 567.72 693.37 577.27 681.74 586.53 669.93 595.41 657.98 603.8 645.92 611.61 633.8 618.77 621.66 625.21 609.55 630.89 597.49 635.77 585.53 639.87 573.7 643.17 562.04 645.73 550.57 647.59 539.32 648.81 528.33 649.49 517.6 649.72 507.15 649.61 497 649.29 487.15 648.88 477.62 648.51 468.39 648.32 459.48 648.43 442.69 650.37 426.75 654.22 412.03 662 397.91 672.39 391.15 679.12 384.51 686.69 374.66 685.39 365.06 684.72 355.7 684.56 346.58 684.8 329.17 685.9 312.44 686.96 296.69 686.66 281.44 684.84 266.81 679.62 252.43 672.02 245.32 666.78 238.23 660.72 231.13 653.89 224 646.33 216.83 638.13 209.59 629.35 202.27 620.11 194.86 610.52 187.34 600.68 179.7 590.73 171.94 580.78 164.05 570.95 156.02 561.37 147.86 552.14 139.57 543.36 131.15 535.13 131.97 525.49 132.5 515.85 132.7 506.21 132.58 496.57 132.13 486.93 131.38 477.29 130.35 467.65 129.1 458.01 127.67 448.37 126.13 438.73 124.54 429.09 122.97 419.45 121.48 409.81 120.14 400.17 119.01 390.53 118.14 380.89 117.55 371.26 117.28 361.62 117.34 351.98 117.73 342.34 118.42 332.7 119.4 323.06 120.61 313.42 122.01 303.78 123.53 294.14 125.12 284.5 126.7 274.86 128.21 265.23 129.58 255.59 130.75 245.95 136.63 230.11 150.77 221.43 159.87 219.13 168.88 216.95 177.77 214.82 186.55 212.67 195.18 210.44 203.68 208.05 220.11 202.43 236.07 195.88 251.22 187.47 265.93 177.87 273.05 172.38 280.05 166.53 286.95 160.34 293.77 153.85 300.53 147.11 307.25 140.17 313.96 133.08 320.67 125.9 327.42 118.68 334.23 111.48 341.12 104.36 348.12 97.36 355.26 90.54 362.57 83.93 373.89 74.54 377.74 71.5" stroke-dasharray="8 0" transform="rotate(4.04, 400, 400)" opacity="0.21"></path><path d="M379.37 83.81Q388.23 87.42 397.33 91.29 406.66 95.45 416.23 99.92 426.03 104.7 436.05 109.82 446.27 115.27 456.69 121.03 467.28 127.11 478.02 133.46 488.89 140.06 499.87 146.88 510.93 153.88 522.04 160.99 533.17 168.18 544.29 175.39 555.37 182.55 566.38 189.62 577.28 196.54 588.04 203.26 598.64 209.72 609.04 215.89 619.22 221.72 629.14 227.18 638.79 232.25 648.14 236.91 657.17 241.16 665.87 245.01 682.03 251.36 697.11 256.7 693.34 266.4 688.42 276.09 682.54 285.79 675.94 295.49 668.86 305.18 661.6 314.88 654.43 324.58 647.63 334.27 641.48 343.97 636.21 353.66 632.03 363.36 629.11 373.05 627.55 382.75 627.43 392.45 628.74 402.14 631.44 411.84 635.41 421.53 640.51 431.23 646.53 440.93 653.24 450.62 660.36 460.32 667.63 470.01 674.76 479.71 681.46 489.4 687.48 499.1 692.58 508.8 696.55 518.49 699.25 528.19 700.56 537.88 700.44 547.58 698.88 557.27 695.96 566.97 685.4 575.72 674.61 584.09 663.6 592.01 652.42 599.39 641.1 606.16 629.67 612.28 618.17 617.71 606.64 622.42 595.1 626.41 583.6 629.69 572.17 632.27 560.83 634.21 549.62 635.57 538.57 636.4 527.7 636.8 517.03 636.86 506.59 636.69 496.38 636.39 486.43 636.07 476.74 635.85 467.33 635.85 458.19 636.18 440.87 638.52 424.36 642.68 409.11 650.47 394.51 660.65 379.71 670.11 363.18 672.36 346.61 672.35 330.68 673.1 315.69 673.94 301.19 674.13 287.29 672.23 273.64 668.55 260.2 661.39 246.76 651.99 240 646 233.18 639.3 226.29 631.97 219.32 624.05 212.25 615.63 205.08 606.8 197.79 597.64 190.38 588.27 182.84 578.79 175.17 569.3 167.38 559.91 159.45 550.73 151.4 541.85 143.22 533.36 143.89 524.06 144.24 514.75 144.27 505.45 143.97 496.15 143.36 486.84 142.46 477.54 141.3 468.23 139.94 458.93 138.42 449.62 136.81 440.32 135.16 431.01 133.55 421.71 132.03 412.4 130.67 403.1 129.51 393.79 128.61 384.49 128 375.18 127.7 365.88 127.73 356.57 128.08 347.27 128.75 337.96 129.69 328.66 130.89 319.35 132.28 310.05 133.82 300.74 135.44 291.44 137.09 282.13 138.69 272.83 140.19 263.52 141.52 254.21 147.55 239.12 161.4 231.21 170.27 229.2 179.06 227.23 187.75 225.24 196.33 223.16 213.06 218.38 229.37 212.86 244.92 205.73 260 197.5 267.27 192.72 274.39 187.57 281.36 182.06 288.2 176.23 294.92 170.09 301.53 163.69 308.05 157.07 314.49 150.28 320.87 143.37 327.22 136.38 333.55 129.38 339.89 122.42 346.26 115.53 352.68 108.77 359.18 102.19 365.78 95.81 375.94 86.74 379.37 83.81" stroke-dasharray="3 6" transform="rotate(8.08, 400, 400)" opacity="0.43"></path><path d="M382.45 96.12Q391.47 99.54 400.69 103.21 410.11 107.15 419.72 111.38 429.51 115.92 439.46 120.76 449.56 125.92 459.79 131.38 470.13 137.14 480.57 143.17 491.07 149.46 501.61 155.96 512.17 162.65 522.72 169.47 533.23 176.39 543.69 183.36 554.05 190.33 564.29 197.24 574.4 204.05 584.33 210.7 594.07 217.16 603.59 223.36 612.87 229.28 621.9 234.89 630.65 240.14 639.11 245.03 654.94 253.46 669.82 260.74 677.82 269.75 673.75 285.1 667.79 294.45 661.3 303.8 654.51 313.15 647.67 322.5 641.01 331.84 634.79 341.19 629.23 350.54 624.52 359.89 620.84 369.24 618.32 378.58 617.05 387.93 617.07 397.28 618.39 406.63 620.96 415.98 624.69 425.32 629.43 434.67 635.03 444.02 641.27 453.37 647.94 462.72 654.79 472.06 661.57 481.41 668.04 490.76 673.98 500.11 679.15 509.45 683.38 518.8 686.52 528.15 688.44 537.5 689.09 546.85 688.44 556.19 686.51 565.54 676.8 573.39 666.84 580.8 656.66 587.71 646.28 594.07 635.73 599.82 625.04 604.95 614.24 609.42 603.36 613.24 592.43 616.42 581.48 618.97 570.54 620.93 559.64 622.36 548.8 623.3 538.06 623.83 527.44 624.03 516.96 623.99 506.64 623.8 496.5 623.55 486.57 623.36 476.84 623.31 467.34 623.51 458.07 624.04 449.04 625 440.25 626.47 423.54 631.52 407.54 638.6 399.94 643.39 392.56 648.91 377.89 657.96 362.62 660 347.76 659.79 333.43 660.31 319.85 661.05 306.61 661.31 293.77 659.84 281.06 656.87 268.37 650.85 255.59 642.82 249.11 637.62 242.55 631.77 235.91 625.29 229.17 618.23 222.32 610.65 215.36 602.62 208.28 594.22 201.07 585.52 193.74 576.62 186.29 567.61 178.71 558.58 171 549.62 163.18 540.83 155.25 532.28 155.72 523.3 155.89 514.33 155.73 505.36 155.25 496.38 154.48 487.41 153.43 478.43 152.16 469.46 150.7 460.49 149.1 451.51 147.43 442.54 145.74 433.56 144.09 424.59 142.56 415.61 141.18 406.64 140.01 397.67 139.09 388.69 138.45 379.72 138.13 370.74 138.12 361.77 138.43 352.79 139.06 343.82 139.96 334.85 141.12 325.87 142.5 316.9 144.03 307.92 145.67 298.95 147.36 289.97 149.03 281 150.63 272.02 152.1 263.05 158.27 248.63 171.83 241.33 188.97 237.61 205.88 233.63 222.27 228.7 238.3 222.95 253.63 215.58 268.51 207.14 275.68 202.29 282.7 197.11 289.58 191.6 296.31 185.79 302.9 179.73 309.37 173.43 315.72 166.95 321.96 160.32 328.12 153.6 334.2 146.83 340.22 140.06 346.21 133.33 352.17 126.69 358.14 120.18 376.32 101.96 382.45 96.12" stroke-dasharray="7 5" transform="rotate(12.12, 400, 400)" opacity="0.40"></path><path d="M386.74 108.42Q405.02 115.13 423.9 122.85 443.27 131.71 463.01 141.74 482.95 152.89 502.94 165.02 522.79 177.9 542.31 191.24 561.33 204.69 579.67 217.9 597.19 230.5 613.75 242.17 629.24 252.65 643.62 261.76 656.84 269.43 668.92 275.68 658.92 293.65 646.7 311.63 633.87 329.6 622.1 347.58 612.94 365.55 607.58 383.53 606.72 401.5 610.49 419.48 618.38 437.45 629.36 455.43 642 473.4 654.63 491.37 665.61 509.35 673.5 527.32 677.27 545.3 676.41 563.27 658.4 576.57 639.47 587.81 619.8 596.78 599.57 603.41 578.98 607.79 558.25 610.23 537.58 611.16 517.15 611.14 497.14 610.83 477.69 610.9 458.94 612.03 440.97 614.82 423.83 619.75 407.55 627.15 392.12 637.18 377.5 649.77 363.48 647.66 350.11 647.14 337.29 647.58 324.9 648.26 312.79 648.49 300.84 647.59 288.91 645.01 276.87 640.31 264.61 633.25 252.03 623.73 239.05 611.86 225.63 597.94 211.73 582.38 197.34 565.74 182.48 548.62 167.19 531.67 167.41 514.38 166.41 497.09 164.3 479.8 161.36 462.51 157.99 445.22 154.61 427.93 151.67 410.64 149.56 393.35 148.56 376.06 148.78 358.77 150.22 341.48 152.67 324.19 155.81 306.89 159.24 289.6 162.51 272.31 165.18 255.02 182.01 251.66 198.7 248.11 215.13 243.99 231.23 238.97 246.9 232.81 262.08 225.36 276.7 216.55 290.75 206.46 304.2 195.22 317.09 183.06 329.46 170.29 341.37 157.23 352.93 144.21 364.26 131.56 381.11 113.99 386.74 108.42" stroke-dasharray="3 1" transform="rotate(16.16, 400, 400)" opacity="0.68"></path><path d="M391.96 120.72Q410 127.05 428.44 134.33 447.16 142.66 466.02 152.1 484.9 162.6 503.62 174.06 522.05 186.28 540.02 199.03 557.39 211.99 574.03 224.86 589.83 237.31 604.71 249.04 618.6 259.77 631.48 269.3 643.34 277.52 654.24 284.39 643.98 301.62 632.17 318.84 620.23 336.07 609.56 353.3 601.46 370.52 596.88 387.75 596.38 404.97 600.01 422.2 607.34 439.43 617.5 456.65 629.26 473.88 641.24 491.1 651.99 508.33 660.23 525.55 664.98 542.78 665.68 560.01 649.27 571.31 631.97 580.62 613.88 587.82 595.16 592.96 575.98 596.21 556.51 597.89 536.91 598.43 517.37 598.35 498.04 598.23 479.06 598.64 460.58 600.16 442.68 603.27 425.45 608.38 408.94 615.73 393.19 625.45 378.18 637.47 365.73 635.33 353.76 634.65 342.17 634.89 330.83 635.43 319.61 635.66 308.4 635.02 297.08 632.99 285.55 629.16 273.72 623.27 261.52 615.18 248.9 604.92 235.82 592.67 222.27 578.73 208.27 563.51 193.83 547.52 179 531.29 178.8 514.66 177.43 498.03 175.05 481.4 171.94 464.78 168.49 448.15 165.09 431.52 162.15 414.9 160.04 398.27 158.99 381.64 159.13 365.01 160.46 348.38 162.8 331.76 165.87 315.13 169.33 298.5 172.74 281.87 175.7 265.25 191.94 262.07 208.1 258.48 224.07 254.16 239.78 248.86 255.13 242.4 270.06 234.69 284.5 225.74 298.4 215.61 311.75 204.49 324.54 192.59 336.78 180.19 348.51 167.58 359.81 155.06 370.74 142.93 386.69 126.07 391.96 120.72" stroke-dasharray="4 8" transform="rotate(20.200000000000003, 400, 400)" opacity="0.36"></path><path d="M397.73 133.02Q415.25 138.98 432.96 145.82 450.77 153.64 468.53 162.49 486.14 172.34 503.45 183.11 520.35 194.66 536.7 206.76 552.41 219.18 567.38 231.63 581.54 243.84 594.84 255.5 607.25 266.38 618.76 276.25 629.42 284.97 639.27 292.44 629 308.89 617.75 325.34 606.75 341.79 597.18 358.24 590.09 374.69 586.24 391.14 586.05 407.59 589.54 424.04 596.33 440.49 605.69 456.94 616.6 473.39 627.87 489.84 638.3 506.29 646.73 522.73 652.27 539.18 654.32 555.63 639.46 564.99 623.73 572.49 607.22 578.11 590.05 581.97 572.35 584.29 554.24 585.39 535.88 585.69 517.41 585.65 498.97 585.76 480.69 586.53 462.71 588.41 445.14 591.81 428.05 597.05 411.53 604.33 395.63 613.72 380.38 625.17 369.28 623.02 358.5 622.19 347.91 622.23 337.42 622.62 326.91 622.84 316.28 622.39 305.44 620.82 294.31 617.75 282.83 612.9 270.95 606.13 258.64 597.39 245.87 586.77 232.67 574.47 219.04 560.79 205.02 546.12 190.66 530.89 190.02 514.94 188.3 498.98 185.68 483.03 182.43 467.07 178.93 451.12 175.54 435.17 172.63 419.21 170.51 403.26 169.43 387.3 169.49 371.35 170.68 355.39 172.89 339.44 175.87 323.48 179.29 307.53 182.78 291.57 185.98 275.62 201.61 272.45 217.2 268.68 232.68 264.08 247.95 258.45 262.95 251.69 277.59 243.76 291.82 234.69 305.58 224.59 318.83 213.63 331.54 202.02 343.73 190.02 355.39 177.89 366.55 165.89 377.29 154.28 392.69 138.14 397.73 133.02" stroke-dasharray="1 2" transform="rotate(24.24, 400, 400)" opacity="0.17"></path><path d="M403.66 145.32Q420.38 150.91 437.12 157.32 453.78 164.63 470.26 172.89 486.46 182.1 502.26 192.18 517.56 203.02 532.3 214.45 546.38 226.27 559.74 238.23 572.36 250.09 584.2 261.59 595.26 272.5 605.56 282.6 615.15 291.72 624.09 299.74 614.02 315.39 603.46 331.03 593.45 346.68 584.96 362.33 578.82 377.98 575.64 393.62 575.72 409.27 579.06 424.92 585.34 440.57 593.93 456.21 603.99 471.86 614.55 487.51 624.56 503.15 633.05 518.8 639.18 534.45 642.36 550.09 628.96 557.62 614.76 563.48 599.8 567.73 584.18 570.52 567.98 572.11 551.31 572.81 534.29 572.99 517.04 573.06 499.67 573.45 482.31 574.57 465.07 576.79 448.06 580.45 431.37 585.78 415.07 592.94 399.25 601.99 383.94 612.87 373.96 610.72 364.12 609.76 354.33 609.62 344.48 609.86 334.51 610.03 324.31 609.72 313.84 608.52 303.02 606.1 291.82 602.18 280.21 596.59 268.18 589.26 255.72 580.2 242.85 569.53 229.61 557.45 216.01 544.24 202.13 530.25 201.07 514.98 199.02 499.72 196.18 484.45 192.84 469.18 189.31 453.92 185.95 438.65 183.08 423.38 180.99 408.12 179.87 392.85 179.84 377.58 180.91 362.32 182.96 347.05 185.79 331.78 189.14 316.51 192.66 301.25 196.02 285.98 211.01 282.65 226 278.61 240.93 273.66 255.73 267.7 270.32 260.65 284.63 252.53 298.6 243.4 312.18 233.38 325.31 222.63 337.97 211.35 350.12 199.78 361.76 188.15 372.9 176.69 383.57 165.61 398.74 150.22 403.66 145.32" stroke-dasharray="7 2" transform="rotate(28.28, 400, 400)" opacity="0.73"></path><path d="M409.34 157.63Q425.01 162.85 440.57 168.83 455.92 175.64 470.98 183.32 485.68 191.88 499.92 201.26 513.64 211.39 526.78 222.11 539.3 233.27 551.17 244.67 562.36 256.1 572.87 267.33 582.73 278.14 591.97 288.34 600.63 297.75 608.78 306.23 599.12 321.05 589.35 335.87 580.35 350.69 572.89 365.51 567.65 380.34 565.08 395.16 565.4 409.98 568.59 424.8 574.36 439.62 582.22 454.44 591.46 469.26 601.28 484.08 610.81 498.91 619.21 513.73 625.74 528.55 629.84 543.37 617.82 549.23 605.05 553.66 591.59 556.75 577.48 558.7 562.79 559.75 547.6 560.2 531.99 560.37 516.07 560.63 499.92 561.32 483.65 562.78 467.36 565.31 451.14 569.18 435.08 574.56 419.26 581.58 403.75 590.27 388.62 600.57 379.49 598.43 370.37 597.36 361.16 597.05 351.79 597.14 342.19 597.26 332.31 597.03 322.1 596.13 311.53 594.24 300.57 591.12 289.2 586.59 277.44 580.55 265.29 572.95 252.77 563.85 239.92 553.38 226.77 541.72 213.38 529.13 211.91 514.57 209.57 500.01 206.57 485.45 203.16 470.89 199.65 456.33 196.34 441.77 193.53 427.21 191.46 412.65 190.32 398.09 190.21 383.52 191.13 368.96 193.01 354.4 195.67 339.84 198.89 325.28 202.39 310.72 205.84 296.16 220.15 292.55 234.5 288.15 248.83 282.84 263.1 276.54 277.22 269.25 291.14 261 304.8 251.86 318.15 241.97 331.12 231.49 343.68 220.59 355.79 209.48 367.44 198.37 378.6 187.46 389.3 176.93 404.44 162.29 409.34 157.63" stroke-dasharray="2 10" transform="rotate(32.32, 400, 400)" opacity="0.81"></path><path d="M414.37 169.94Q428.81 174.81 443.02 180.36 456.95 186.67 470.52 193.78 483.68 201.7 496.37 210.39 508.55 219.78 520.19 229.78 531.25 240.24 541.73 251.01 551.63 261.92 560.97 272.76 569.77 283.36 578.08 293.52 585.95 303.08 593.44 311.89 584.33 325.87 575.43 339.84 567.45 353.82 560.99 367.79 556.58 381.77 554.56 395.74 555.08 409.72 558.11 423.7 563.41 437.67 570.56 451.65 579 465.62 588.07 479.6 597.06 493.57 605.25 507.55 612.01 521.53 616.81 535.5 606.05 539.9 594.64 543.12 582.6 545.28 569.95 546.59 556.74 547.28 543.03 547.61 528.87 547.88 514.34 548.36 499.52 549.36 484.48 551.15 469.3 553.96 454.06 557.99 438.86 563.39 423.75 570.23 408.81 578.53 394.1 588.25 385.59 586.14 376.95 584.98 368.14 584.52 359.09 584.46 349.76 584.5 340.1 584.33 330.09 583.65 319.72 582.2 308.97 579.77 297.85 576.16 286.36 571.26 274.53 565 262.38 557.4 249.95 548.5 237.27 538.42 224.39 527.35 222.55 513.51 219.97 499.68 216.83 485.85 213.4 472.01 209.93 458.18 206.7 444.34 203.97 430.51 201.94 416.68 200.78 402.84 200.58 389.01 201.35 375.18 203.04 361.34 205.51 347.51 208.56 333.68 211.97 319.84 215.45 306.01 229.03 302.03 242.69 297.24 256.39 291.56 270.06 284.97 283.66 277.49 297.12 269.16 310.4 260.09 323.43 250.39 336.18 240.22 348.58 229.74 360.62 219.13 372.24 208.56 383.44 198.22 394.19 188.25 409.44 174.36 414.37 169.94" stroke-dasharray="2 3" transform="rotate(36.36, 400, 400)" opacity="0.30"></path><path d="M418.4 182.24Q431.47 186.76 444.25 191.9 456.7 197.73 468.77 204.27 480.42 211.55 491.62 219.55 502.34 228.21 512.57 237.45 522.3 247.19 531.54 257.28 540.3 267.58 548.61 277.94 556.5 288.19 564.01 298.17 571.2 307.74 578.13 316.73 569.72 329.85 561.74 342.96 554.76 356.08 549.25 369.19 545.6 382.3 544.08 395.42 544.77 408.53 547.63 421.65 552.48 434.76 558.95 447.88 566.62 460.99 574.94 474.11 583.33 487.22 591.21 500.34 595.88 521.6 583.57 531.98 572.85 533.45 561.59 534.31 549.8 534.8 537.53 535.13 524.82 535.55 511.72 536.3 498.28 537.62 484.55 539.7 470.62 542.75 456.53 546.9 442.36 552.26 428.17 558.9 414.02 566.81 399.98 575.95 383.43 572.96 366.14 571.85 356.98 571.8 347.49 571.63 337.66 571.12 327.47 570.02 316.93 568.15 306.06 565.33 294.87 561.44 283.39 556.39 271.64 550.16 259.65 542.76 247.47 534.24 235.13 524.72 232.98 511.63 230.19 498.55 226.98 485.46 223.55 472.38 220.16 459.29 217.03 446.21 214.39 433.13 212.41 420.04 211.24 406.96 210.96 393.87 211.59 380.79 213.07 367.71 215.32 354.62 218.17 341.54 221.42 328.46 224.86 315.37 237.68 310.98 250.61 305.79 263.61 299.78 276.64 292.95 289.64 285.33 302.57 277.01 315.38 268.07 328.02 258.62 340.46 248.82 352.63 238.8 364.51 228.71 376.05 218.71 387.24 208.95 398.03 199.54 413.41 186.42 418.4 182.24" stroke-dasharray="4 4" transform="rotate(40.400000000000006, 400, 400)" opacity="0.95"></path><path d="M421.14 194.54Q432.78 198.72 444.11 203.46 455.09 208.8 465.69 214.8 475.9 221.45 485.7 228.76 495.08 236.69 504.04 245.18 512.58 254.15 520.73 263.51 528.5 273.14 535.92 282.92 543.03 292.71 549.87 302.37 556.49 311.78 562.95 320.79 555.32 333.04 548.29 345.28 542.28 357.52 537.67 369.76 534.72 382.01 533.63 394.25 534.46 406.49 537.16 418.74 541.56 430.98 547.4 443.22 554.32 455.46 561.89 467.71 569.65 479.95 577.12 492.19 582.37 511.66 571.88 520.38 562.39 521.35 552.42 521.95 541.98 522.37 531.1 522.8 519.8 523.43 508.11 524.46 496.06 526.08 483.71 528.43 471.1 531.67 458.27 535.89 445.28 541.18 432.19 547.58 419.03 555.08 405.86 563.65 389.71 560.62 372.71 559.29 363.68 559.14 354.33 558.96 344.66 558.55 334.67 557.72 324.37 556.3 313.78 554.14 302.92 551.11 291.82 547.13 280.51 542.14 269.01 536.12 257.36 529.09 245.6 521.11 243.18 508.79 240.25 496.48 237.01 484.17 233.63 471.86 230.35 459.54 227.34 447.23 224.8 434.92 222.89 422.61 221.72 410.3 221.36 397.98 221.83 385.67 223.11 373.36 225.12 361.05 227.73 348.74 230.78 336.42 234.09 324.11 246.13 319.3 258.29 313.75 270.54 307.47 282.85 300.46 295.19 292.8 307.51 284.56 319.77 275.82 331.94 266.69 343.96 257.31 355.81 247.78 367.43 238.25 378.8 228.83 389.89 219.65 400.65 210.82 416.11 198.48 421.14 194.54" stroke-dasharray="2 6" transform="rotate(44.44, 400, 400)" opacity="0.83"></path><path d="M422.42 206.84Q432.63 210.69 442.52 215.03 452.09 219.91 461.32 225.36 470.2 231.41 478.72 238.04 486.89 245.24 494.73 252.96 502.24 261.16 509.44 269.75 516.36 278.65 523.02 287.77 529.48 296.99 535.75 306.2 541.89 315.29 547.95 324.15 541.19 335.52 535.11 346.88 530.03 358.25 526.24 369.61 523.93 380.98 523.22 392.34 524.16 403.71 526.68 415.08 530.67 426.44 535.9 437.81 542.1 449.17 548.93 460.54 556.03 471.91 563.02 483.27 559.93 505.09 542.49 509.61 533.31 510.07 523.73 510.67 513.78 511.55 503.45 512.86 492.79 514.75 481.82 517.33 470.56 520.71 459.06 524.97 447.34 530.15 435.46 536.28 423.44 543.36 411.34 551.35 395.39 548.31 378.59 546.78 369.68 546.53 360.47 546.31 350.99 545.97 341.22 545.33 331.21 544.27 320.95 542.64 310.47 540.33 299.81 537.26 288.98 533.36 278.01 528.59 266.94 522.94 255.79 516.43 253.17 504.91 250.16 493.39 246.93 481.87 243.64 470.35 240.49 458.83 237.62 447.31 235.21 435.79 233.36 424.27 232.2 412.75 231.76 401.23 232.09 389.71 233.16 378.2 234.91 366.68 237.26 355.16 240.07 343.64 243.19 332.12 254.4 326.93 265.75 321.08 277.21 314.6 288.76 307.51 300.36 299.89 312 291.81 323.62 283.35 335.21 274.61 346.72 265.68 358.13 256.69 369.39 247.74 380.47 238.92 391.34 230.35 401.97 222.09 417.38 210.54 422.42 206.84" stroke-dasharray="3 8" transform="rotate(48.48, 400, 400)" opacity="0.48"></path><path d="M422.13 219.15Q430.96 222.67 439.52 226.62 447.78 231.04 455.75 235.97 463.43 241.42 470.83 247.38 477.95 253.86 484.81 260.82 491.43 268.23 497.83 276.03 504.03 284.16 510.07 292.54 515.97 301.1 521.77 309.74 527.5 318.38 533.22 326.91 527.35 337.4 522.2 347.89 518.01 358.38 514.97 368.86 513.22 379.35 512.85 389.84 513.86 400.33 516.21 410.82 519.8 421.3 524.45 431.79 529.96 442.28 536.07 452.77 542.5 463.26 548.95 473.75 547.07 493.43 531.88 497.4 515.31 498.97 497.75 501.52 488.41 503.66 478.78 506.42 468.87 509.9 458.7 514.13 448.31 519.16 437.71 525 426.94 531.63 416.03 539.05 400.2 536.02 383.59 534.35 374.82 533.99 365.81 533.72 356.56 533.4 347.08 532.89 337.4 532.09 327.53 530.88 317.5 529.17 307.32 526.86 297.03 523.89 286.64 520.21 276.19 515.79 265.69 510.63 262.94 499.92 259.91 489.21 256.74 478.51 253.59 467.8 250.59 457.09 247.88 446.38 245.6 435.67 243.84 424.97 242.69 414.26 242.19 403.55 242.38 392.85 243.23 382.14 244.72 371.43 246.78 360.72 249.31 350.02 252.19 339.31 262.55 333.81 273.05 327.75 283.68 321.17 294.41 314.1 305.22 306.62 316.09 298.78 327 290.67 337.92 282.37 348.82 273.96 359.66 265.54 370.44 257.18 381.1 248.98 391.63 241.02 401.99 233.35 417.15 222.59 422.13 219.15" stroke-dasharray="5 5" transform="rotate(52.52, 400, 400)" opacity="0.80"></path><path d="M420.3 231.45Q435.08 238.43 449.16 246.62 462.11 257.04 474.47 268.8 480.34 275.42 486.07 282.41 491.67 289.74 497.18 297.34 502.61 305.15 508.01 313.12 513.39 321.16 518.8 329.21 513.83 338.82 509.58 348.44 506.21 358.05 503.85 367.67 502.6 377.28 502.5 386.9 503.56 396.51 505.73 406.13 508.94 415.74 513.05 425.36 517.91 434.97 523.32 444.59 529.07 454.2 534.93 463.81 533.89 481.68 520.67 485.4 506.26 487.4 491.02 490.45 482.93 492.78 474.57 495.68 465.96 499.2 457.11 503.36 448.02 508.2 438.73 513.72 429.25 519.91 419.6 526.74 403.93 523.77 387.58 521.97 379.02 521.52 370.26 521.19 361.32 520.85 352.2 520.43 342.93 519.81 333.52 518.92 323.99 517.66 314.37 515.96 304.67 513.76 294.91 511.01 285.12 507.67 275.32 503.71 272.5 493.83 269.51 483.95 266.46 474.07 263.47 464.19 260.65 454.31 258.13 444.43 255.99 434.55 254.32 424.67 253.18 414.79 252.63 404.91 252.68 395.03 253.34 385.15 254.56 375.27 256.32 365.39 258.53 355.51 261.12 345.63 270.61 339.93 280.24 333.77 289.99 327.19 299.86 320.25 309.83 313 319.88 305.5 330 297.81 340.16 290 350.34 282.15 360.52 274.33 370.68 266.6 380.79 259.03 390.83 251.67 400.78 244.6 415.46 234.65 420.3 231.45" stroke-dasharray="1 11" transform="rotate(56.56, 400, 400)" opacity="0.27"></path><path d="M417.06 243.76Q429.76 249.85 441.74 257.33 453.09 266.34 463.91 276.91 474.32 288.93 484.48 302.22 494.56 316.44 504.74 331.21 497.26 348.7 492.88 366.2 492.18 383.7 495.26 401.19 501.7 418.69 510.67 436.18 520.99 453.67 531.31 471.17 520.5 472.29 508.95 473.7 496.59 475.99 483.34 479.65 469.21 485.12 454.21 492.67 438.38 502.45 421.8 514.43 406.51 511.37 390.48 509.65 373.79 508.72 356.57 507.97 338.91 506.8 320.96 504.66 302.83 501.07 284.68 495.69 278.98 477.62 273.29 459.54 268.35 441.47 264.79 423.39 263.1 405.31 263.48 387.23 265.89 369.16 270.02 351.08 287.37 339.15 305.2 326 323.46 311.99 342.04 297.53 360.83 283.08 379.69 269.05 398.48 255.85 417.06 243.76 417.06 243.76 417.06 243.76" stroke-dasharray="6 4" transform="rotate(60.599999999999994, 400, 400)" opacity="0.66"></path><path d="M412.63 256.06Q423.45 261.49 433.78 268.09 443.71 275.96 453.33 285.15 462.75 295.62 472.1 307.24 481.51 319.81 491.11 333.06 485.24 348.85 482.05 364.63 481.9 380.42 484.78 396.21 490.41 411.99 498.15 427.78 507.06 452.08 496.85 462.4 486.17 465.13 474.83 469.15 462.79 474.73 450.04 482.06 436.6 491.2 422.49 502.13 407.65 499.21 392.26 497.42 376.42 496.34 360.21 495.56 343.74 494.6 327.12 493.05 310.43 490.52 293.79 486.69 288.34 470.31 283.07 453.93 278.55 437.55 275.27 421.17 273.58 404.79 273.67 388.41 275.53 372.03 278.96 355.65 294.51 343.93 310.51 331.37 326.93 318.26 343.71 304.95 360.76 291.78 378 279.06 395.33 267.07 412.63 256.06 412.63 256.06 412.63 256.06" stroke-dasharray="8 9" transform="rotate(64.64, 400, 400)" opacity="0.91"></path><path d="M407.32 268.36Q416.58 273.16 425.55 278.9 434.31 285.69 442.93 293.57 451.51 302.53 460.14 312.5 468.91 323.37 477.92 334.95 473.52 349.06 471.36 363.16 471.63 377.26 474.31 391.37 479.16 405.47 485.75 419.58 493.4 441.51 484.49 451.54 475.27 454.66 465.6 458.93 455.42 464.51 444.7 471.51 433.43 479.96 421.61 489.83 407.47 487.07 392.97 485.25 378.18 484.06 363.19 483.21 348.06 482.36 332.89 481.2 317.74 479.44 302.69 476.82 297.6 462.14 292.81 447.46 288.74 432.78 285.74 418.11 284.09 403.43 283.92 388.75 285.26 374.08 287.97 359.4 301.72 348.18 315.88 336.42 330.42 324.38 345.31 312.31 360.51 300.46 375.96 289.05 391.58 278.3 407.32 268.36 407.32 268.36 407.32 268.36" stroke-dasharray="0 10" transform="rotate(68.68, 400, 400)" opacity="0.67"></path><path d="M401.5 280.67Q409.49 284.84 417.34 289.77 425.13 295.53 432.91 302.16 440.73 309.68 448.68 318.06 456.82 327.22 465.21 337.07 462.1 349.52 460.8 361.97 461.39 374.43 463.83 386.88 467.96 399.33 473.48 411.78 479.82 431.42 471.97 441.19 464.06 444.62 455.83 449.01 447.27 454.46 438.32 461.03 428.98 468.73 419.23 477.53 406.06 474.97 392.69 473.15 379.17 471.89 365.57 470.96 351.94 470.14 338.34 469.22 324.8 467.98 311.4 466.22 306.77 453.25 302.51 440.27 298.91 427.3 296.22 414.32 294.62 401.35 294.24 388.37 295.09 375.4 297.11 362.43 309.08 351.96 321.39 341.21 334.04 330.37 347.01 319.61 360.27 309.11 373.8 299.03 394.53 285.09 401.5 280.67" stroke-dasharray="2 3" transform="rotate(72.72, 400, 400)" opacity="0.47"></path><path d="M395.58 292.97Q409.46 301.02 423.42 310.96 430.54 317.13 437.81 323.98 445.28 331.48 452.97 339.6 450.97 350.42 450.36 361.25 451.17 372.08 453.36 382.91 456.81 393.74 461.33 404.57 466.39 421.95 459.44 431.4 445.6 439.78 431.13 450.62 423.46 457.51 415.51 465.22 403.58 462.89 391.58 461.13 379.53 459.82 367.48 458.83 355.46 458 343.52 457.2 331.67 456.28 319.96 455.09 315.89 443.81 312.19 432.53 309.07 421.25 306.69 409.97 305.18 398.69 304.63 387.41 305.05 376.13 306.43 364.85 316.64 355.38 327.14 345.81 337.91 336.27 348.95 326.88 360.25 317.76 371.81 309.01 389.58 296.84 395.58 292.97" stroke-dasharray="6 3" transform="rotate(76.76, 400, 400)" opacity="0.94"></path><path d="M389.96 305.27Q402.18 311.92 414.61 319.98 427.66 330.57 441.23 342.68 440.12 351.92 440.04 361.16 440.97 370.39 442.88 379.63 445.7 388.86 449.32 398.1 447.2 419.51 435.4 430.01 423.28 440.56 410.71 452.92 400.27 450.84 389.83 449.18 379.41 447.88 369.04 446.84 358.74 445.99 348.52 445.23 331.69 439.25 321.85 424.42 319.22 414.82 317.17 405.22 315.78 395.62 315.1 386.02 315.16 376.42 315.96 366.81 324.48 358.54 333.2 350.29 342.14 342.13 351.29 334.16 360.65 326.42 370.23 318.99 384.98 308.6 389.96 305.27" stroke-dasharray="9 7" transform="rotate(80.80000000000001, 400, 400)" opacity="0.69"></path><path d="M385.04 317.58Q395.65 322.75 406.6 329.22 418.01 337.12 429.96 346.48 429.82 361.82 432.41 377.15 437.44 392.49 444.38 407.82 434.78 413.57 425.12 420.92 415.28 429.95 405.16 440.61 387.68 437.31 370.41 435.03 353.43 433.41 336.84 432.02 331.51 416.14 327.64 400.26 325.66 384.37 325.77 368.49 339.67 354.72 354.17 341.44 369.3 328.98 385.04 317.58 385.04 317.58 385.04 317.58" stroke-dasharray="8 10" transform="rotate(84.84, 400, 400)" opacity="0.79"></path><path d="M381.16 329.88Q390.17 333.88 399.47 338.7 409.12 344.43 419.16 351.11 419.7 363.35 421.93 375.59 425.7 387.83 430.74 400.06 422.88 405.56 415.05 412.1 407.19 419.69 399.25 428.31 385.38 425.51 371.73 423.4 358.35 421.8 345.25 420.51 341.17 407.9 338.12 395.29 336.31 382.67 335.88 370.06 346.6 359.2 357.72 348.78 375.2 334.43 381.16 329.88" stroke-dasharray="3 4" transform="rotate(88.88, 400, 400)" opacity="0.69"></path><path d="M378.6 342.19Q393.37 348.68 408.8 356.65 409.67 365.82 411.46 374.99 412.73 391.15 405.36 403.52 391.29 411.64 373.2 411.98 357.1 405.2 348.59 390.5 347.07 381.11 346.33 371.72 354.07 363.79 362.02 356.19 374.4 345.58 378.6 342.19" stroke-dasharray="6 1" transform="rotate(92.92, 400, 400)" opacity="0.22"></path><path d="M377.52 354.49Q387.98 358.39 398.86 363.16 400.98 375.39 404.57 387.64 396.22 395.18 388 403.7 374.96 400.79 362.3 398.53 359.07 386.09 357.16 373.65 372.34 359.09 377.52 354.49" stroke-dasharray="8 1" transform="rotate(96.96, 400, 400)" opacity="0.88"></path></g></svg>